PathFileType	4	(X/Y/Z)	C:\Users\dbl\Desktop\LZH\BX\Trimmed_bx_n_0_1801.trc
DataRate	CameraRate	NumFrames	NumMarkers	Units	OrigDataRate	OrigDataStartFrame	OrigNumFrames
50.00	50.00	       4	43	mm	50.00	873	       997
Frame#	Time	Top.Head			R.Acromium			L.Acromium			Sternum			R.ASIS			L.ASIS			V.Sacral			R.Thigh.Upper			R.Thigh.Front			R.Thigh.Rear			R.Knee.Lat			R.Knee.Med			R.Shank.Upper			R.Shank.Front			R.Shank.Rear			R.Ankle.Lat			R.Midfoot.Lat			R.Toe.Lat			R.Toe.Tip			R.Toe.Med			R.Ankle.Med			R.Midfoot.Sup			R.Heel			L.Thigh.Upper			L.Thigh.Front			L.Thigh.Rear			L.Knee.Lat			L.Knee.Med			L.Shank.Upper			L.Shank.Front			L.Shank.Rear			L.Ankle.Lat			L.Midfoot.Lat			L.Toe.Lat			L.Toe.Tip			L.Toe.Med			L.Ankle.Med			L.Midfoot.Sup			L.Heel			origin1 front left			origin2 front right			origin 3 back right			origin 4 back leftt			
		X1	Y1	Z1	X2	Y2	Z2	X3	Y3	Z3	X4	Y4	Z4	X5	Y5	Z5	X6	Y6	Z6	X7	Y7	Z7	X8	Y8	Z8	X9	Y9	Z9	X10	Y10	Z10	X11	Y11	Z11	X12	Y12	Z12	X13	Y13	Z13	X14	Y14	Z14	X15	Y15	Z15	X16	Y16	Z16	X17	Y17	Z17	X18	Y18	Z18	X19	Y19	Z19	X20	Y20	Z20	X21	Y21	Z21	X22	Y22	Z22	X23	Y23	Z23	X24	Y24	Z24	X25	Y25	Z25	X26	Y26	Z26	X27	Y27	Z27	X28	Y28	Z28	X29	Y29	Z29	X30	Y30	Z30	X31	Y31	Z31	X32	Y32	Z32	X33	Y33	Z33	X34	Y34	Z34	X35	Y35	Z35	X36	Y36	Z36	X37	Y37	Z37	X38	Y38	Z38	X39	Y39	Z39	X40	Y40	Z40	X41	Y41	Z41	X42	Y42	Z42	X43	Y43	Z43	

873	17.440	-348.71735	256.41656	1332.90015	-432.94464	70.30087	1068.29626	-437.20490	423.59167	1065.17444	-486.42957	250.13451	873.68646	-757.55713	124.61995	735.31940	-747.63586	340.71542	724.71777	-946.93073	252.78758	803.68469	-736.09119	63.79557	659.53662	-663.66010	130.30719	725.04602	-625.58783	59.54468	620.64954	-532.01074	77.89537	541.36865	-492.77448	187.27209	529.57336	-546.67517	79.83867	492.59848	-471.04388	132.19365	476.74380	-572.90820	79.25060	450.03571	-679.72119	144.16057	213.96460	-620.70282	81.92767	170.78149	-577.57574	57.76752	163.92712	-503.52255	90.66109	161.03436	-539.84314	145.14398	160.27515	-630.97272	219.71204	205.68571	-599.51239	190.90578	161.98035	-725.77313	214.06155	171.19283	-740.15076	453.54633	672.93469	-651.82880	397.02469	730.57336	-637.81860	454.72406	619.11804	-514.15973	441.01276	552.37146	-483.91382	327.89786	531.49597	-512.52618	440.67102	515.79175	-446.77734	384.77716	504.71439	-582.61108	434.14407	472.41293	-665.83783	400.86972	212.65306	-588.33148	458.40457	166.56790	-552.91211	471.22839	163.28271	-490.51361	431.00195	167.96663	-524.51672	385.54767	175.51155	-628.99756	313.83746	198.58618	-589.90967	338.38028	163.89418	-728.63770	326.23212	164.09329	-443.69705	448.66101	146.60449	-450.20325	75.10001	142.93575	-806.34552	82.51343	140.92780	-799.85333	456.58154	144.96338	
874	17.460	-349.19791	255.72534	1338.04932	-433.08514	69.65852	1073.12317	-437.44009	422.91669	1070.15576	-487.37183	249.40457	879.18494	-756.57477	124.62612	740.06415	-746.06567	340.88730	729.70190	-946.30481	252.55235	807.93903	-736.07196	63.74219	661.94824	-662.92407	129.68896	727.21960	-625.88489	59.42226	622.01874	-532.91083	77.68511	541.95880	-493.46082	186.93121	530.15594	-547.65161	79.60044	492.97678	-471.85004	131.81047	477.15021	-573.73505	79.16017	450.32611	-679.83459	144.18832	213.90318	-620.83545	81.86920	170.76752	-577.57501	57.77161	163.94354	-503.53793	90.60381	161.02740	-539.87506	145.13863	160.30928	-631.04327	219.59564	205.83487	-599.58356	190.77156	162.01439	-725.78925	214.07405	171.19157	-739.95770	453.63843	675.94055	-651.08173	397.39371	732.77155	-638.29712	454.81992	620.96692	-515.20184	441.18152	553.11127	-484.54407	327.31702	532.94434	-513.56201	440.73569	516.19873	-447.72845	385.09570	505.22940	-583.57806	434.19794	472.68301	-666.12354	400.98297	212.54593	-588.40857	458.56317	166.46100	-553.04022	471.39914	163.08142	-490.59064	431.08578	167.99326	-524.54883	385.69348	175.63930	-629.13031	313.91235	198.82724	-589.95203	338.58292	163.99530	-728.68176	326.32230	164.08926	-443.70648	448.68732	146.60283	-450.19772	75.09762	143.00279	-806.34814	82.51798	140.88565	-799.81836	456.40225	144.73187	
875	17.480	-349.84747	254.92389	1343.61560	-433.19830	68.96828	1078.29932	-437.62946	422.17505	1075.47314	-488.37634	248.64105	884.76215	-755.55762	124.64176	744.91632	-744.43311	341.06357	734.81335	-945.57867	252.32686	812.46368	-736.03192	63.70217	664.56165	-662.08356	129.02492	729.50452	-626.22260	59.24469	623.54675	-533.94159	77.42329	542.66833	-494.17365	186.53320	530.77222	-548.71313	79.45128	493.39850	-472.76816	131.37143	477.57718	-574.67407	79.00404	450.63684	-679.98718	144.14084	213.89764	-621.01892	81.75800	170.71384	-577.56995	57.76934	163.96432	-503.53021	90.56912	161.03386	-539.90271	145.14185	160.33722	-631.14404	219.50298	206.10091	-599.71777	190.55437	162.02419	-725.79980	214.03839	171.22211	-739.67651	453.58328	679.10376	-650.21063	397.64459	735.06366	-638.70099	454.77371	622.92322	-516.23877	441.14435	553.87769	-485.26767	326.95419	534.00653	-514.63690	440.62213	516.63281	-448.71301	385.18839	505.75845	-584.51923	434.12317	473.01819	-666.34259	401.07230	212.46123	-588.47406	458.71320	166.36676	-553.16278	471.55197	162.90158	-490.67313	431.15881	168.01567	-524.58337	385.86066	175.78784	-629.27112	313.98645	199.08960	-589.94891	338.65881	164.22736	-728.76270	326.44196	164.05972	-443.71655	448.69196	146.60588	-450.20981	75.07826	143.05511	-806.34320	82.50628	140.88908	-799.92041	456.31967	144.58629	
876	17.500	-350.59415	254.06943	1349.62622	-433.32458	68.31897	1083.86292	-437.70135	421.49127	1081.29443	-489.46191	247.83626	890.40344	-754.50562	124.66721	749.87476	-742.73785	341.24423	740.05133	-944.72974	252.13606	817.23950	-735.98053	63.62337	667.42322	-661.19373	128.30910	731.89398	-626.66266	58.96204	625.23712	-535.13617	77.09897	543.44891	-494.96674	186.09933	531.34637	-549.86810	79.33360	493.85324	-473.76910	130.87871	478.06747	-575.74622	78.75775	450.97128	-680.15039	144.05470	213.88470	-621.21283	81.58485	170.60031	-577.57477	57.73606	163.98613	-503.51495	90.55750	161.03212	-539.93140	145.12663	160.36693	-631.25323	219.35895	206.41071	-599.84283	190.28635	162.05164	-725.80481	213.94566	171.23352	-739.32800	453.37518	682.39514	-649.18262	397.75494	737.41711	-639.00275	454.58099	625.00311	-517.27283	440.81787	554.63080	-486.09015	326.71713	534.71265	-515.72095	440.35437	517.16779	-449.73468	384.98660	506.24228	-585.44360	433.90948	473.40814	-666.47552	401.13870	212.40770	-588.51617	458.84430	166.31421	-553.23883	471.66177	162.76959	-490.75632	431.20355	168.00896	-524.62836	385.97116	175.89668	-629.35162	314.04709	199.30429	-589.92499	338.63760	164.51318	-728.87805	326.58643	164.00977	-443.72635	448.67599	146.61623	-450.23514	75.05443	143.07274	-806.33936	82.49023	140.94061	-800.12726	456.34354	144.55240	
